<svg width="3730" height="1074" viewBox="0 0 3730 1074" fill="none" xmlns="http://www.w3.org/2000/svg">
<path d="M782.406 0.823975C780.939 1.49072 776.539 2.02405 772.806 2.02405C768.939 2.15735 763.206 2.69067 760.139 3.49072C756.939 4.15735 748.673 5.62402 741.739 6.82397C729.073 8.9574 710.006 13.224 702.406 15.624C675.473 23.8906 666.939 26.9574 645.073 36.2906C615.206 49.0907 573.339 73.7573 551.073 91.7573C531.073 107.891 524.673 113.491 512.006 126.024C498.673 138.957 483.473 155.891 475.073 166.824C454.673 193.491 448.273 202.691 438.006 219.624C416.539 255.224 399.073 297.357 388.539 338.824C381.606 365.357 382.673 364.824 338.139 365.624C320.273 366.024 304.139 366.824 302.273 367.491C300.406 368.291 296.806 368.824 294.273 368.824C291.739 368.824 287.073 369.357 284.006 370.157C280.939 370.824 273.073 372.557 266.406 374.024C242.939 379.357 228.673 384.291 204.273 395.357C148.539 420.691 100.273 461.891 60.2727 518.157C41.6061 544.291 21.4727 586.824 12.4061 618.824C1.87273 656.157 -0.127266 671.224 0.00606726 716.824C0.00606726 750.691 0.806067 764.024 3.60607 777.491C4.1394 779.624 5.20607 784.824 6.00607 788.824C20.2727 859.624 55.0727 923.757 106.539 974.291C135.873 1003.09 162.273 1021.76 197.073 1038.82C223.873 1051.89 256.006 1062.56 283.073 1067.36C287.873 1068.29 294.806 1069.49 298.406 1070.16C302.139 1070.82 308.673 1071.89 313.073 1072.42C326.939 1074.16 1338.14 1073.62 1350.41 1071.89C1370.54 1068.96 1393.34 1064.29 1405.07 1060.69C1449.07 1047.36 1483.34 1030.42 1516.41 1005.89C1544.94 984.824 1562.14 967.891 1589.47 934.291C1604.54 915.624 1627.61 874.824 1637.74 848.824C1655.47 803.091 1662.27 766.291 1662.27 716.157C1662.27 690.157 1661.61 677.624 1659.07 664.157C1658.41 660.424 1657.21 653.624 1656.27 648.824C1654.67 639.624 1647.87 614.024 1645.07 606.157C1636.14 581.891 1632.01 572.291 1623.74 556.157C1581.74 474.024 1509.74 410.957 1426.41 383.224C1413.34 378.824 1410.27 378.024 1394.41 374.024C1383.34 371.224 1382.14 371.091 1365.61 369.091C1360.01 368.424 1354.94 367.491 1354.27 367.091C1353.61 366.691 1339.34 366.024 1322.67 365.624C1289.21 364.691 1284.81 363.891 1280.67 356.824C1279.21 354.557 1276.81 347.224 1275.07 340.424C1267.74 311.357 1259.34 288.557 1243.74 256.157C1218.27 203.224 1177.61 149.357 1136.41 113.624C1110.67 91.3574 1100.27 83.4907 1072.41 65.8907C1042.27 46.824 993.606 25.3573 961.073 16.824C938.939 10.9574 929.606 8.55737 922.539 7.49072C903.606 4.15735 897.873 3.224 889.073 1.89062C877.339 0.157349 786.006 -0.776001 782.406 0.823975ZM839.739 404.957C854.406 405.624 873.073 406.824 881.073 407.624C889.206 408.424 898.139 409.224 901.073 409.357C904.006 409.491 908.539 410.024 911.073 410.557C913.606 411.091 918.139 411.757 921.073 412.024C926.406 412.691 936.939 414.424 948.806 416.824C952.273 417.624 957.873 418.691 961.473 419.491C972.273 421.624 979.206 423.224 994.406 426.824C1002.54 428.691 1010.67 430.691 1012.81 431.091C1014.81 431.491 1016.81 432.291 1017.21 432.957C1017.61 433.624 1019.61 434.157 1021.74 434.157C1023.87 434.157 1026.01 434.691 1026.41 435.491C1026.81 436.157 1028.67 436.824 1030.54 436.824C1032.27 436.824 1034.81 437.357 1036.14 438.024C1037.34 438.691 1040.54 439.757 1043.07 440.557C1045.61 441.224 1051.34 442.957 1055.74 444.291C1060.14 445.491 1064.27 447.091 1064.94 447.757C1065.74 448.291 1067.34 448.824 1068.67 448.824C1070.01 448.824 1072.14 449.357 1073.47 450.024C1076.14 451.491 1080.54 453.091 1082.41 453.491C1084.01 453.624 1086.94 454.824 1094.41 458.157C1097.34 459.357 1102.14 461.357 1105.07 462.291C1108.01 463.357 1110.67 464.424 1111.07 464.824C1111.47 465.224 1114.14 466.291 1117.07 467.357C1122.14 469.091 1128.67 472.024 1152.27 483.091C1157.61 485.624 1165.74 489.891 1170.27 492.557C1174.67 495.224 1178.67 497.491 1179.07 497.491C1179.47 497.491 1180.67 498.157 1181.74 498.824C1185.34 501.224 1189.07 503.357 1191.07 504.291C1194.27 505.757 1204.41 515.891 1204.41 517.624C1204.41 518.424 1205.34 519.891 1206.41 520.824C1207.47 521.757 1208.41 523.757 1208.41 525.357C1208.41 526.957 1208.94 528.824 1209.61 529.624C1212.01 531.891 1211.61 550.424 1209.34 554.824C1208.01 556.957 1207.07 559.624 1207.07 560.557C1207.07 563.091 1192.41 576.824 1188.81 577.624C1187.07 578.157 1185.74 578.824 1185.74 579.357C1185.74 579.891 1182.14 580.957 1177.87 581.891C1168.94 583.757 1161.74 582.557 1150.27 577.357C1146.54 575.624 1142.81 574.157 1142.01 574.157C1141.21 574.157 1140.41 573.757 1140.14 573.091C1138.94 570.291 1085.34 544.157 1077.74 542.691C1075.61 542.157 1073.74 541.357 1073.74 540.691C1073.74 540.024 1072.81 539.491 1071.74 539.491C1070.67 539.491 1068.67 538.957 1067.34 538.291C1066.14 537.624 1063.34 536.424 1061.07 535.491C1058.94 534.557 1056.01 533.357 1054.81 532.691C1053.47 532.024 1051.34 531.491 1050.01 531.491C1048.67 531.491 1047.07 530.957 1046.27 530.424C1045.61 529.757 1041.21 528.157 1036.41 526.824C1031.61 525.491 1027.21 523.891 1026.54 523.224C1025.74 522.691 1023.61 522.157 1021.61 522.157C1019.61 522.157 1017.47 521.491 1017.07 520.824C1016.67 520.024 1014.81 519.491 1013.07 519.491C1011.34 519.491 1009.61 518.957 1009.21 518.291C1008.81 517.624 1006.54 516.824 1004.14 516.291C992.806 514.424 980.939 511.891 979.073 511.224C976.939 510.291 970.673 509.091 962.406 507.891C959.473 507.491 956.539 506.691 955.739 506.024C955.073 505.357 952.006 504.824 948.939 504.824C945.739 504.824 942.939 504.291 942.539 503.624C942.139 502.957 938.273 502.157 934.139 501.624C929.873 501.091 924.273 500.424 921.739 500.157C919.206 499.891 912.273 498.957 906.406 498.157C836.939 488.557 771.206 488.557 697.739 498.024C691.473 498.957 684.006 499.757 681.073 500.157C675.873 500.691 668.139 502.024 653.739 504.824C649.739 505.624 644.139 506.691 641.339 507.091C638.673 507.491 636.006 508.291 635.606 508.957C635.206 509.624 632.939 510.157 630.406 510.157C627.873 510.157 625.606 510.691 625.206 511.357C624.806 511.891 621.473 512.824 617.739 513.224C610.806 514.024 603.073 516.157 598.806 518.291C597.473 518.957 594.939 519.491 593.206 519.491C591.339 519.491 589.473 520.024 589.073 520.824C588.673 521.491 586.806 522.157 585.073 522.157C583.339 522.157 581.473 522.691 581.073 523.491C580.673 524.157 578.806 524.824 577.073 524.824C575.339 524.824 573.606 525.357 573.206 526.024C572.539 526.957 568.006 528.424 562.406 529.357C560.806 529.624 557.206 531.091 546.139 535.624C544.006 536.557 540.939 537.757 539.073 538.557C537.206 539.224 534.806 540.291 533.606 540.824C532.406 541.491 529.073 542.424 526.273 542.957C523.339 543.357 520.273 544.424 519.339 545.224C517.606 546.691 495.473 546.557 493.206 545.091C492.406 544.691 491.206 544.157 490.406 544.157C487.073 543.891 483.339 541.091 476.806 534.424C470.273 527.891 468.806 525.491 464.539 515.091C462.673 510.557 462.539 497.224 464.406 496.157C465.206 495.757 465.739 494.291 465.739 492.957C465.739 484.557 480.673 469.624 495.739 462.824C501.606 460.291 507.339 457.624 508.406 456.957C509.606 456.291 512.539 455.357 515.073 454.824C519.606 453.757 521.206 453.224 526.673 450.424C528.406 449.491 530.939 448.824 532.273 448.824C533.739 448.824 535.339 448.157 535.739 447.491C536.139 446.691 537.873 446.157 539.606 446.157C541.206 446.157 543.073 445.757 543.606 445.224C545.073 443.757 553.873 440.957 560.139 440.024C563.206 439.624 566.139 438.691 566.539 438.024C566.939 437.357 568.406 436.824 569.873 436.824C571.206 436.824 573.473 436.291 574.806 435.624C578.273 433.891 586.273 431.491 588.806 431.491C590.139 431.491 592.139 430.957 593.473 430.291C595.739 429.091 611.339 425.091 617.739 424.157C619.606 423.757 624.139 422.957 627.739 422.157C655.739 416.157 689.339 410.557 703.073 409.491C706.406 409.357 716.273 408.424 725.073 407.491C760.806 403.891 798.406 403.091 839.739 404.957ZM861.073 595.357C866.939 596.024 876.539 597.357 882.406 598.157C888.273 599.091 895.473 600.024 898.406 600.291C904.139 600.824 913.873 602.424 925.739 604.824C929.739 605.624 935.339 606.691 938.139 607.091C940.806 607.491 943.473 608.291 943.873 608.957C944.273 609.624 946.273 610.157 948.539 610.157C950.673 610.157 953.473 610.691 954.806 611.357C956.006 612.024 961.606 613.624 967.073 614.824C978.273 617.357 993.206 621.891 996.673 623.624C998.006 624.291 1000.14 624.824 1001.47 624.824C1002.81 624.824 1004.41 625.357 1005.21 625.891C1005.87 626.424 1009.74 628.024 1013.74 629.357C1021.87 632.024 1023.61 632.691 1032.67 636.691C1036.14 638.291 1039.87 639.491 1040.94 639.491C1042.01 639.491 1043.21 640.024 1043.74 640.691C1044.14 641.357 1046.67 642.691 1049.47 643.491C1058.27 646.424 1092.94 663.091 1110.41 672.957C1115.61 675.757 1121.07 678.824 1122.81 679.757C1124.41 680.557 1125.74 681.757 1125.74 682.424C1125.74 682.957 1126.94 683.491 1128.41 683.491C1129.87 683.491 1131.07 684.024 1131.07 684.824C1131.07 685.491 1132.94 687.091 1135.21 688.291C1140.01 690.691 1146.54 697.757 1150.54 704.824C1152.94 708.957 1153.34 711.624 1153.07 720.291C1152.81 726.157 1151.87 732.557 1150.94 734.824C1148.94 739.624 1137.87 751.491 1135.47 751.491C1134.54 751.491 1133.74 752.024 1133.74 752.824C1133.74 753.491 1132.54 754.157 1131.21 754.157C1129.74 754.157 1128.14 754.691 1127.74 755.491C1126.67 757.091 1110.54 757.224 1107.34 755.624C1106.14 754.957 1103.61 753.891 1101.74 753.091C1095.34 750.424 1082.41 744.291 1081.74 743.491C1079.61 741.224 1028.41 715.491 1025.87 715.491C1025.21 715.491 1022.41 714.291 1019.47 712.957C1011.87 709.091 1004.54 706.024 1002.01 705.491C998.273 704.691 985.739 700.024 984.806 699.091C984.406 698.557 982.539 698.157 980.939 698.157C979.206 698.157 977.473 697.491 977.073 696.824C976.673 696.024 974.806 695.491 973.073 695.491C971.339 695.491 969.473 694.824 969.073 694.157C968.673 693.357 966.539 692.824 964.539 692.824C962.539 692.824 960.406 692.424 959.873 691.757C959.339 691.224 955.473 690.157 951.339 689.224C947.206 688.424 941.073 686.957 937.739 686.157C934.406 685.357 929.473 684.291 926.673 683.891C924.006 683.491 921.339 682.691 920.939 682.024C920.539 681.357 918.006 680.824 915.206 680.824C912.539 680.824 909.739 680.291 909.073 679.624C907.739 678.424 901.473 677.357 888.406 676.157C885.073 675.891 877.339 674.957 871.073 674.157C820.273 668.024 764.539 668.024 715.739 674.291C709.873 674.957 702.406 675.757 699.073 676.024C695.739 676.291 689.473 677.224 685.073 678.024C680.673 678.957 674.673 680.024 671.739 680.424C668.806 680.824 665.873 681.624 665.206 682.291C664.406 682.957 661.873 683.491 659.606 683.491C657.206 683.491 654.806 684.024 654.406 684.824C654.006 685.491 651.873 686.157 649.606 686.157C647.473 686.157 644.673 686.691 643.339 687.357C638.806 689.624 632.139 691.357 630.406 690.691C629.473 690.291 628.273 690.557 627.739 691.357C627.339 692.157 625.473 692.824 623.739 692.824C622.006 692.824 620.139 693.357 619.739 694.157C619.339 694.824 617.473 695.491 615.739 695.491C614.006 695.491 612.139 696.024 611.739 696.824C611.339 697.491 609.606 698.157 607.873 698.157C606.273 698.157 604.406 698.691 603.739 699.224C602.939 699.757 599.073 701.357 595.073 702.691C588.006 704.957 586.539 705.491 578.139 708.957C576.006 709.891 573.073 711.091 571.473 711.624C566.006 713.757 561.073 715.757 559.073 716.824C557.873 717.357 555.073 718.291 552.673 718.691C550.406 719.224 548.139 720.291 547.739 720.957C547.206 721.624 545.206 722.157 543.073 722.157C540.939 722.157 538.806 722.691 538.406 723.491C538.006 724.157 535.206 724.824 532.406 724.824C529.606 724.824 526.806 724.157 526.406 723.491C526.006 722.691 524.139 722.157 522.406 722.157C515.473 722.157 505.606 714.024 500.139 703.757C498.139 700.291 497.339 696.024 497.339 688.824C497.073 677.224 500.006 669.357 507.339 662.691C511.473 658.691 530.673 646.957 537.739 643.891C539.606 643.091 544.139 641.091 547.739 639.491C556.806 635.357 557.606 635.091 575.739 629.357C584.539 626.557 592.273 623.891 593.073 623.224C593.739 622.691 595.606 622.157 597.339 622.157C599.073 622.157 601.473 621.624 602.806 620.957C606.139 619.224 620.673 614.957 623.339 614.824C624.539 614.824 626.006 614.424 626.539 613.757C627.073 613.224 629.206 612.824 631.206 612.824C633.206 612.824 635.206 612.291 635.606 611.624C636.006 610.957 638.273 610.157 640.673 609.757C643.073 609.224 647.206 608.557 649.739 608.157C652.273 607.624 655.606 606.824 657.073 606.157C658.539 605.491 661.873 604.691 664.406 604.157C666.939 603.757 672.139 602.824 675.739 602.024C679.473 601.357 684.539 600.557 687.073 600.157C689.606 599.757 696.273 598.957 701.739 598.157C707.206 597.357 718.006 596.157 725.606 595.491C733.206 594.824 739.739 593.891 740.139 593.491C741.473 592.157 849.206 593.891 861.073 595.357ZM842.406 780.691C862.673 782.824 881.739 785.624 897.739 788.824C901.739 789.624 906.939 790.557 909.073 790.957C911.339 791.224 916.139 792.157 919.739 792.957C923.473 793.624 928.406 794.691 930.806 795.091C933.206 795.491 935.473 796.291 935.873 796.957C936.273 797.624 937.873 798.157 939.339 798.157C942.006 798.157 948.406 799.891 954.406 802.291C957.739 803.491 964.539 805.357 966.673 805.491C967.473 805.491 968.673 806.024 969.206 806.557C969.739 807.091 971.339 807.491 972.673 807.491C974.006 807.491 976.139 808.024 977.473 808.691C982.273 811.224 992.406 815.491 993.739 815.491C994.539 815.491 996.139 816.024 997.473 816.691C999.739 818.024 1004.81 819.757 1005.47 819.624C1005.61 819.491 1009.34 821.224 1013.74 823.491C1018.14 825.624 1022.54 827.491 1023.74 827.491C1024.81 827.491 1025.74 828.024 1025.74 828.824C1025.74 829.491 1026.54 830.157 1027.61 830.157C1029.47 830.157 1051.34 840.957 1054.41 843.357C1055.07 844.024 1060.81 847.091 1067.07 850.424C1073.34 853.757 1080.27 857.491 1082.54 858.957C1087.87 862.291 1097.87 871.624 1100.14 875.224C1102.27 878.957 1102.27 897.357 1100.14 901.224C1097.21 906.424 1085.21 918.157 1082.81 918.157C1081.61 918.157 1080.14 918.691 1079.74 919.491C1079.34 920.157 1074.81 920.824 1069.61 920.824C1064.41 920.824 1060.41 920.291 1060.41 919.491C1060.41 918.691 1059.61 918.157 1058.67 918.157C1056.27 918.157 1049.74 914.957 1049.74 913.757C1049.74 913.224 1048.94 912.824 1048.01 912.824C1046.94 912.824 1043.21 910.691 1039.61 908.157C1036.01 905.624 1032.41 903.491 1031.47 903.491C1030.67 903.491 1029.74 903.091 1029.47 902.424C1028.94 901.091 1004.14 888.824 1002.14 888.824C1001.21 888.824 1000.41 888.424 1000.41 887.757C1000.41 886.691 996.673 885.091 980.406 878.824C977.073 877.624 973.339 876.024 972.139 875.357C970.806 874.691 968.539 874.157 967.073 874.157C965.606 874.157 964.406 873.491 964.406 872.824C964.406 872.024 962.939 871.491 961.206 871.491C959.339 871.491 957.473 870.824 957.073 870.157C956.673 869.357 955.073 868.824 953.606 868.824C952.273 868.824 950.006 868.291 948.673 867.491C946.406 866.291 936.806 863.891 928.673 862.557C926.273 862.157 924.006 861.357 923.606 860.691C923.206 860.024 920.939 859.491 918.406 859.491C915.873 859.491 913.473 858.824 913.073 858.157C912.673 857.357 910.273 856.824 907.739 856.824C905.206 856.824 902.806 856.291 902.406 855.491C902.006 854.824 899.339 854.291 896.539 854.424C893.739 854.424 890.673 854.024 889.739 853.491C888.806 852.957 885.473 852.157 882.539 851.891C879.473 851.757 872.939 850.824 867.739 850.157C842.806 846.557 827.206 845.757 790.406 845.624C768.406 845.624 744.139 846.291 736.406 847.091C728.673 848.024 715.873 849.224 707.739 850.024C699.739 850.824 690.939 852.157 688.406 853.091C685.873 853.891 681.873 854.557 679.473 854.291C677.206 854.157 674.939 854.691 674.406 855.491C674.006 856.157 671.206 856.824 668.406 856.824C665.606 856.824 662.806 857.357 662.406 858.157C662.006 858.824 660.006 859.491 658.139 859.491C656.139 859.491 652.806 860.024 650.539 860.691C636.539 865.091 630.139 866.691 628.139 866.424C626.939 866.157 625.606 866.691 625.073 867.491C624.673 868.157 622.806 868.824 621.073 868.824C619.339 868.824 617.473 869.357 617.073 870.157C616.673 870.824 615.073 871.491 613.606 871.491C611.339 871.491 602.406 874.957 596.139 878.291C594.806 878.957 593.073 879.491 592.139 879.491C591.339 879.491 586.273 881.491 581.206 884.024C576.006 886.557 569.606 888.957 567.073 889.357C555.339 891.624 553.339 891.757 550.273 890.291C548.539 889.491 545.473 888.024 543.473 887.091C538.406 884.824 533.206 879.757 529.873 873.757C526.539 867.757 526.006 852.957 528.939 846.024C530.806 841.491 537.873 834.024 541.739 832.291C542.806 831.891 547.606 829.357 552.406 826.824C557.206 824.291 561.606 822.157 562.139 822.157C562.806 822.157 565.206 821.357 567.473 820.291C569.873 819.224 575.606 817.091 580.406 815.491C585.206 813.891 590.273 812.157 591.739 811.491C596.806 809.224 607.206 806.157 609.739 806.157C611.073 806.157 612.673 805.491 613.073 804.824C613.473 804.024 615.339 803.491 617.206 803.491C618.939 803.491 621.473 802.957 622.806 802.291C626.673 800.424 634.406 798.157 637.473 798.157C638.939 798.157 640.539 797.624 640.939 796.957C641.339 796.291 643.606 795.491 646.006 795.091C648.406 794.691 653.473 793.624 657.073 792.957C660.806 792.157 665.606 791.224 667.739 790.824C672.539 790.157 683.739 788.157 693.739 786.157C703.073 784.424 718.273 782.557 737.606 780.957C745.873 780.157 753.073 779.224 753.606 778.824C754.673 777.624 828.273 779.091 842.406 780.691Z" fill="#F5F5F5" fill-opacity="0.7"/>
<path d="M3137.21 440.024C3130.94 442.424 3125.07 447.757 3121.34 454.824C3118.54 460.024 3118.41 461.757 3118.01 513.091L3117.61 565.891L3108.67 559.224C3097.47 550.691 3081.61 543.091 3067.74 539.357C3053.74 535.624 3029.21 535.357 3015.74 538.824C2969.61 550.424 2935.34 590.957 2926.41 644.691C2922.94 665.491 2924.14 700.691 2928.94 718.824C2940.54 761.757 2969.34 795.091 3006.14 807.624C3044.14 820.557 3083.07 812.424 3110.54 785.757C3118.01 778.691 3117.74 778.557 3119.74 788.291C3120.14 790.691 3122.67 795.091 3125.34 798.157C3139.34 814.557 3162.41 811.624 3172.81 792.157L3175.74 786.824V624.157C3175.74 495.891 3175.34 460.424 3174.01 456.691C3172.14 451.224 3165.74 444.29 3160.01 441.224C3154.41 438.424 3143.34 437.757 3137.21 440.024ZM3069.87 594.157C3087.74 599.624 3101.07 611.757 3110.41 630.824C3130.81 672.291 3118.81 727.224 3084.81 748.824C3065.61 761.091 3036.01 761.491 3016.01 749.757C3001.47 741.224 2987.61 721.224 2982.14 700.824C2978.94 689.091 2978.94 660.957 2982.14 648.824C2989.07 622.291 3007.47 601.091 3029.47 594.024C3040.14 590.691 3058.81 590.691 3069.87 594.157Z" fill="#F5F5F5" fill-opacity="0.7"/>
<path d="M1873.07 454.291C1842.01 457.224 1814.01 469.357 1795.61 488.157C1785.61 498.424 1779.07 509.091 1774.27 522.824C1769.34 536.957 1768.14 564.291 1771.74 580.424C1777.74 607.891 1794.41 628.824 1820.67 641.757C1835.74 649.224 1850.01 653.491 1875.47 658.157C1902.81 663.224 1913.07 666.157 1926.41 672.691C1938.01 678.424 1947.21 686.557 1951.34 694.824C1954.67 701.224 1955.87 714.291 1953.87 721.757C1950.41 734.557 1931.34 748.957 1911.61 753.624C1899.87 756.557 1875.21 756.557 1861.74 753.624C1848.94 750.957 1830.54 741.891 1816.27 731.091C1802.27 720.691 1802.41 720.691 1796.67 719.357C1785.74 716.957 1772.54 723.491 1767.07 734.291C1763.74 740.557 1763.47 753.091 1766.54 760.157C1769.74 767.757 1780.94 778.824 1795.34 788.424C1817.87 803.357 1838.54 810.024 1872.01 812.957C1930.54 818.157 1982.01 794.424 2003.07 752.557C2010.81 736.957 2012.81 725.891 2012.14 702.424C2011.34 679.357 2008.01 666.824 1999.07 653.224C1983.74 629.891 1958.94 617.624 1900.94 604.824C1859.21 595.624 1844.54 589.624 1834.41 577.757C1822.67 564.157 1823.21 542.557 1835.47 529.224C1846.41 517.357 1864.14 511.357 1888.14 511.357C1904.27 511.357 1916.67 514.157 1934.41 521.491C1945.61 526.024 1961.07 534.557 1962.41 536.824C1964.01 539.357 1973.61 543.491 1978.01 543.491C1989.07 543.357 2001.61 532.691 2004.41 520.691C2007.21 508.957 2002.27 496.957 1990.81 487.357C1960.67 462.424 1917.07 450.157 1873.07 454.291Z" fill="#F5F5F5" fill-opacity="0.7"/>
<path d="M3262.41 460.157C3255.21 462.691 3246.54 472.424 3244.54 480.024C3243.47 484.29 3243.07 528.291 3243.07 633.891C3243.07 800.557 3242.54 790.957 3252.94 800.557C3267.74 814.291 3290.81 810.291 3299.74 792.424L3303.07 785.624V724.024V662.291L3359.47 661.891C3414.14 661.491 3415.87 661.357 3421.07 658.557C3431.61 652.957 3436.67 644.557 3436.54 632.824C3436.54 620.824 3431.34 612.557 3420.41 606.691C3416.14 604.291 3411.34 604.157 3359.47 603.757L3303.07 603.357V559.357V515.491H3370.01C3435.07 515.491 3437.07 515.357 3442.67 512.691C3463.07 502.824 3464.14 474.024 3444.67 462.557L3438.41 458.824L3353.07 458.557C3282.27 458.29 3266.81 458.557 3262.41 460.157Z" fill="#F5F5F5" fill-opacity="0.7"/>
<path d="M2171.74 536.424C2111.61 541.357 2063.61 587.224 2053.74 649.091C2052.67 655.891 2052.27 667.091 2052.81 681.757C2053.61 706.291 2056.41 720.024 2064.27 737.357C2074.14 759.224 2095.74 783.891 2114.54 794.957C2140.54 810.157 2169.21 816.291 2198.41 812.824C2252.81 806.291 2294.67 769.357 2309.34 714.824C2312.54 702.557 2312.94 699.357 2312.94 675.491C2313.07 652.824 2312.67 648.024 2310.01 637.757C2297.87 589.757 2263.21 552.957 2218.81 540.824C2208.81 538.157 2188.27 535.357 2181.07 535.757C2178.94 535.891 2174.67 536.157 2171.74 536.424ZM2201.87 593.624C2226.27 600.957 2245.74 621.891 2253.21 648.957C2256.54 660.824 2256.54 688.824 2253.21 700.691C2249.34 714.957 2243.07 726.024 2233.47 736.291C2217.87 752.691 2202.41 758.824 2179.07 757.891C2166.54 757.357 2163.87 756.824 2155.74 752.957C2131.74 741.757 2117.21 722.691 2111.61 695.357C2108.54 679.891 2109.61 658.691 2114.27 644.024C2124.67 611.757 2150.81 591.624 2182.54 591.491C2189.87 591.491 2197.47 592.291 2201.87 593.624Z" fill="#F5F5F5" fill-opacity="0.7"/>
<path d="M2773.07 536.824C2751.47 539.757 2726.41 554.291 2711.47 572.824L2705.74 579.891V573.357C2705.74 559.624 2700.01 549.491 2689.34 544.157C2678.54 538.824 2666.94 540.157 2658.14 547.891C2647.87 556.957 2648.41 549.357 2648.41 674.824C2648.41 800.291 2647.87 792.691 2658.14 801.757C2671.74 813.624 2692.14 810.157 2701.47 794.157L2705.07 788.157L2705.74 711.491C2706.41 644.557 2706.81 634.157 2708.67 629.357C2716.01 610.824 2727.07 600.024 2744.54 594.157C2751.74 591.624 2755.34 591.357 2767.74 591.757C2780.67 592.157 2783.34 592.691 2790.14 596.024C2803.74 602.557 2810.67 614.291 2813.74 635.491C2814.41 640.291 2815.07 676.157 2815.07 715.357C2815.07 784.691 2815.21 786.824 2817.87 792.291C2823.47 803.891 2834.54 809.891 2847.74 808.291C2856.94 807.224 2864.14 801.891 2868.81 792.824L2872.54 785.491L2872.01 702.157C2871.61 623.357 2871.34 618.157 2868.67 606.424C2864.67 588.291 2860.81 577.891 2855.21 569.224C2842.01 548.957 2826.27 539.891 2799.74 536.824C2786.41 535.357 2784.54 535.357 2773.07 536.824Z" fill="#F5F5F5" fill-opacity="0.7"/>
<path d="M2383.87 542.824C2381.07 543.757 2376.67 546.557 2374.27 548.957C2365.34 557.624 2365.61 555.357 2366.01 645.491C2366.54 738.157 2366.27 735.757 2378.54 760.691C2383.74 771.091 2386.81 775.357 2396.27 784.957C2413.61 802.424 2430.54 809.757 2460.94 812.957C2485.61 815.624 2510.81 811.624 2530.41 802.157C2560.81 787.357 2579.47 758.424 2584.41 718.157C2585.21 711.757 2585.74 677.224 2585.74 637.491C2585.74 561.357 2585.47 558.824 2578.01 550.691C2567.47 539.091 2549.61 537.891 2538.27 547.757C2528.67 556.291 2529.21 551.757 2528.27 636.824C2527.61 684.557 2526.81 716.024 2525.87 720.024C2522.14 736.424 2513.74 747.757 2500.54 754.024C2493.61 757.224 2491.74 757.491 2475.07 757.491C2459.47 757.491 2456.27 757.091 2450.94 754.691C2442.41 750.691 2434.14 742.957 2430.14 735.091C2423.47 721.891 2423.07 716.557 2423.07 638.824C2423.07 596.024 2422.54 564.957 2421.74 562.291C2417.07 546.024 2399.74 537.091 2383.87 542.824Z" fill="#F5F5F5" fill-opacity="0.7"/>
<path d="M3527.87 542.824C3525.07 543.757 3520.67 546.557 3518.27 548.957C3509.34 557.624 3509.61 554.557 3510.14 652.824C3510.54 752.291 3510.14 747.091 3520.81 768.824C3528.41 784.291 3542.27 798.557 3556.41 805.224C3570.94 812.024 3578.54 813.491 3597.74 813.224C3625.87 812.957 3646.54 805.624 3663.74 789.891L3672.81 781.491L3672.01 793.891C3670.41 816.157 3665.61 828.957 3655.34 838.957C3646.41 847.624 3633.87 852.024 3613.61 853.624C3598.81 854.824 3588.27 852.824 3568.41 845.491C3558.81 841.891 3550.27 839.491 3546.94 839.491C3535.21 839.491 3525.07 849.357 3521.74 863.891C3518.01 880.957 3530.67 895.624 3555.21 902.691C3573.47 908.024 3609.07 910.291 3629.07 907.491C3688.94 898.957 3722.14 865.091 3728.41 805.891C3729.07 798.824 3729.74 745.091 3729.74 680.691C3729.74 557.357 3729.87 559.224 3722.01 550.691C3711.47 539.091 3693.61 537.891 3682.27 547.757C3672.67 556.291 3673.21 551.757 3672.27 636.824C3671.47 721.491 3671.34 722.157 3662.67 736.557C3657.87 744.691 3651.61 750.157 3642.14 754.557C3636.54 757.091 3633.47 757.491 3618.41 757.491C3603.34 757.491 3600.27 757.091 3594.67 754.557C3585.07 750.157 3578.67 744.557 3574.67 736.957C3567.47 723.891 3567.07 718.691 3567.07 639.491C3567.07 596.291 3566.54 564.957 3565.74 562.291C3561.07 546.024 3543.74 537.091 3527.87 542.824Z" fill="#F5F5F5" fill-opacity="0.7"/>
</svg>
