<svg width="37" height="28" viewBox="0 0 37 28" fill="none" xmlns="http://www.w3.org/2000/svg">
<path d="M23.6687 0C23.3078 0.64088 22.9836 1.30387 22.689 1.98158C19.8897 1.56169 17.0389 1.56169 14.2322 1.98158C13.945 1.30387 13.6135 0.64088 13.2525 0C10.6227 0.44936 8.05913 1.23757 5.62823 2.3499C0.810534 9.488 -0.493316 16.442 0.154934 23.3002C2.97633 25.3849 6.13653 26.9761 9.50303 27.9926C10.2617 26.9761 10.9321 25.8932 11.5067 24.7661C10.4164 24.361 9.36303 23.8527 8.35383 23.2634C8.61903 23.0718 8.87683 22.8729 9.12733 22.6814C15.0426 25.4659 21.8934 25.4659 27.816 22.6814C28.0665 22.8877 28.3243 23.0866 28.5895 23.2634C27.5803 23.86 26.5269 24.361 25.4293 24.7735C26.0039 25.9006 26.6742 26.9834 27.433 28C30.7995 26.9834 33.9597 25.3996 36.7811 23.3149C37.5472 15.3591 35.4698 8.4641 31.293 2.3573C28.8695 1.24494 26.3059 0.45672 23.6761 0.0147305L23.6687 0ZM12.3317 19.0792C10.5122 19.0792 9.00203 17.4291 9.00203 15.3886C9.00203 13.3481 10.4532 11.6906 12.3243 11.6906C14.1954 11.6906 15.6834 13.3554 15.654 15.3886C15.6245 17.4217 14.1881 19.0792 12.3317 19.0792ZM24.6043 19.0792C22.7774 19.0792 21.282 17.4291 21.282 15.3886C21.282 13.3481 22.7332 11.6906 24.6043 11.6906C26.4753 11.6906 27.956 13.3554 27.9265 15.3886C27.8971 17.4217 26.4606 19.0792 24.6043 19.0792Z" fill="#F5F5F5"/>
</svg>
